# xmcd
#
# Track frame offsets:
# 150
# 18185
# 35267
# 49805
# 65102
# 83552
# 98105
# 117910
# 133397
# 149502
#
# Disc length: 2173 seconds
#
#
# Revision: 0
# Processed by: cddbd v1.5.1PL2 Copyright (c) Steve Scherf et al.
# Submitted via: FreeRIP 2.943 
#
DISCID=8a087b0a
DTITLE=Various Artist - The Best of 90s Country - Disk 1
DYEAR=2004
DGENRE=Country
TTITLE0=Seminole Wind - John Anderson
TTITLE1=Come Next Monday - K.T. Oslin
TTITLE2=Back in My Younger Days - Don Williams
TTITLE3=Seein' My Falther In Me - Paul Overstreet
TTITLE4=It Aint Nothin - Keith Whitley
TTITLE5=Baby Walk On - Matraca Berg
TTITLE6=Fast Movin' Train - Restless Heart
TTITLE7=Lucky Moon - The Oak Ridge Boys
TTITLE8=Nobody's Talking - Exile
TTITLE9=Fool Such As I - Ballie And The Boys
EXTD=
EXTT0=
EXTT1=
EXTT2=
EXTT3=
EXTT4=
EXTT5=
EXTT6=
EXTT7=
EXTT8=
EXTT9=
PLAYORDER=
